<svg width="20.725311" height="15.500000" viewBox="0 0 20.7253 15.5" fill="none" xmlns="http://www.w3.org/2000/svg" xmlns:xlink="http://www.w3.org/1999/xlink">
	<desc>
			Created with Pixso.
	</desc>
	<defs/>
	<path id="Vector" d="M19.61 8.78C18.12 10.73 14.54 14.75 10.36 14.75C6.18 14.75 2.59 10.73 1.1 8.78C0.87 8.49 0.75 8.12 0.75 7.75C0.75 7.37 0.87 7 1.1 6.71C2.59 4.76 6.18 0.75 10.36 0.75C14.54 0.75 18.12 4.76 19.61 6.71C20.09 7.33 20.09 8.16 19.61 8.78Z" stroke="#000000" stroke-opacity="1.000000" stroke-width="1.500000" stroke-linejoin="round"/>
	<path id="Vector" d="M10.36 10.75C8.7 10.75 7.36 9.4 7.36 7.75C7.36 6.09 8.7 4.75 10.36 4.75C12.01 4.75 13.36 6.09 13.36 7.75C13.36 9.4 12.01 10.75 10.36 10.75Z" stroke="#000000" stroke-opacity="1.000000" stroke-width="1.500000" stroke-linejoin="round"/>
</svg>
