<svg width="302.265015" height="50.000000" viewBox="0 0 302.265 50" fill="none" xmlns="http://www.w3.org/2000/svg" xmlns:xlink="http://www.w3.org/1999/xlink">
	<desc>
			Created with Pixso.
	</desc>
	<defs/>
	<path id="Days" d="M5.95 5.16Q4.95 4.65 3.62 4.65L0.89 4.65L0.89 13L3.62 13Q4.95 13 5.95 12.5Q6.56 12.2 6.99 11.74Q7.28 11.44 7.5 11.06Q8.05 10.13 8.05 8.86Q8.05 7.58 7.5 6.63Q7.26 6.22 6.94 5.89Q6.52 5.45 5.95 5.16ZM5.73 11.21Q4.96 11.88 3.62 11.88L2.26 11.88L2.26 5.77L3.62 5.77Q4.91 5.77 5.67 6.41Q5.77 6.49 5.86 6.59Q5.93 6.66 5.99 6.73Q6.64 7.53 6.64 8.86Q6.64 10.16 6 10.93Q5.94 11.01 5.86 11.09Q5.8 11.15 5.73 11.21ZM9.36 7.89Q8.95 8.66 8.95 9.66Q8.95 10.62 9.34 11.39Q9.35 11.42 9.36 11.44Q9.66 12.01 10.11 12.39Q10.29 12.54 10.48 12.67Q10.79 12.86 11.12 12.96Q11.56 13.1 12.04 13.1Q12.81 13.1 13.41 12.79Q14.01 12.48 14.36 12.01L14.36 13L15.74 13L15.74 6.38L14.36 6.38L14.36 7.34Q14.01 6.89 13.43 6.58Q12.85 6.27 12.07 6.27Q11.52 6.27 11.04 6.44Q10.75 6.54 10.49 6.7Q10.25 6.84 10.04 7.03Q9.64 7.38 9.36 7.89ZM25.52 12.82Q26.14 13.1 26.92 13.1Q27.69 13.1 28.26 12.85Q28.81 12.61 29.12 12.18Q29.13 12.17 29.14 12.16Q29.27 11.98 29.34 11.78Q29.46 11.49 29.46 11.15Q29.45 10.56 29.16 10.19Q29.13 10.16 29.11 10.13Q28.91 9.9 28.68 9.75Q28.5 9.63 28.31 9.55Q27.85 9.35 27.13 9.15Q26.59 9 26.31 8.9Q26.03 8.79 25.84 8.62Q25.75 8.53 25.7 8.43Q25.65 8.31 25.65 8.17Q25.65 8.02 25.7 7.9Q25.78 7.75 25.94 7.63Q26.23 7.43 26.77 7.43Q27.32 7.43 27.64 7.69Q27.77 7.8 27.86 7.94Q27.98 8.14 28 8.4L29.37 8.4Q29.34 7.76 29.04 7.3Q28.88 7.05 28.63 6.85Q28.6 6.82 28.57 6.79Q27.89 6.27 26.82 6.27Q26.06 6.27 25.47 6.53Q24.89 6.78 24.58 7.22Q24.42 7.45 24.34 7.7Q24.27 7.93 24.27 8.18Q24.27 8.77 24.55 9.15Q24.58 9.19 24.61 9.23Q24.84 9.49 25.13 9.67Q25.27 9.75 25.42 9.82Q25.89 10.01 26.63 10.21Q27.4 10.43 27.76 10.61Q27.95 10.71 28.04 10.87Q28.11 10.99 28.11 11.16Q28.11 11.29 28.07 11.4Q27.99 11.59 27.79 11.73Q27.48 11.95 26.9 11.95Q26.4 11.95 26.06 11.73Q26.02 11.7 25.98 11.67Q25.74 11.49 25.65 11.25Q25.59 11.11 25.58 10.97L24.16 10.97Q24.17 11.26 24.27 11.53Q24.36 11.81 24.55 12.05Q24.56 12.07 24.57 12.09Q24.93 12.55 25.52 12.82ZM19.43 16.1L23.49 6.38L22.07 6.38L20.14 11.42L18.28 6.38L16.76 6.38L19.36 12.89L18.02 16.1L19.43 16.1ZM14.08 8.5Q14.36 9 14.36 9.68Q14.36 10.37 14.08 10.88Q13.84 11.3 13.49 11.55Q13.41 11.61 13.34 11.65Q13.12 11.78 12.88 11.84Q12.63 11.91 12.36 11.91Q12.17 11.91 11.99 11.88Q11.67 11.82 11.38 11.64Q11.29 11.59 11.21 11.53Q10.86 11.28 10.63 10.86Q10.35 10.34 10.35 9.66Q10.35 8.98 10.63 8.48Q10.86 8.08 11.19 7.84Q11.28 7.78 11.37 7.72Q11.59 7.6 11.83 7.53Q12.08 7.46 12.36 7.46Q12.63 7.46 12.88 7.53Q13.12 7.6 13.34 7.73Q13.42 7.78 13.51 7.84Q13.85 8.09 14.08 8.5Z" fill="#000000" fill-opacity="1.000000" fill-rule="evenodd"/>
	<path id="03" d="M20.4 37.38C20.39 45.05 16.86 49.5 11 49.5C5.14 49.5 1.59 45.03 1.61 37.38C1.62 29.75 5.17 25.4 11 25.4C16.84 25.4 20.42 29.77 20.4 37.38ZM42.74 42.46C42.75 46.44 39.02 49.32 33.79 49.32C28.67 49.32 25.04 46.49 24.95 42.42L29.91 42.42C30 44.12 31.63 45.25 33.8 45.25C36.05 45.25 37.64 43.99 37.63 42.13C37.64 40.25 35.99 38.94 33.35 38.94L31.18 38.94L31.18 35.32L33.35 35.32C35.59 35.32 37.15 34.09 37.14 32.25C37.15 30.5 35.82 29.3 33.83 29.3C31.82 29.3 30.2 30.45 30.14 32.22L25.42 32.22C25.49 28.2 29.08 25.4 33.85 25.4C38.67 25.4 41.89 28.29 41.88 31.96C41.89 34.57 40.09 36.42 37.49 36.88L37.49 37.07C40.91 37.5 42.75 39.57 42.74 42.46ZM6.62 37.38C6.61 42.75 8.34 45.42 11 45.42C13.67 45.42 15.39 42.75 15.38 37.38C15.38 32.1 13.65 29.44 11 29.44C8.35 29.44 6.63 32.1 6.62 37.38Z" fill="#000000" fill-opacity="1.000000" fill-rule="evenodd"/>
	<path id="Hours" d="M91.55 13L91.55 4.65L90.19 4.65L90.19 8.23L86.26 8.23L86.26 4.65L84.89 4.65L84.89 13L86.26 13L86.26 9.35L90.19 9.35L90.19 13L91.55 13ZM94.86 12.84Q95.49 13.1 96.22 13.1Q96.94 13.1 97.56 12.86Q97.76 12.78 97.96 12.68Q98.32 12.48 98.61 12.21Q98.95 11.89 99.2 11.47Q99.25 11.38 99.3 11.28Q99.66 10.57 99.66 9.68Q99.66 8.75 99.27 8.01Q99.24 7.95 99.21 7.89Q98.95 7.44 98.58 7.1Q98.31 6.87 98 6.7Q97.85 6.61 97.69 6.55Q97.05 6.27 96.28 6.27Q95.51 6.27 94.85 6.56Q94.71 6.62 94.57 6.7Q94.25 6.87 93.99 7.1Q93.62 7.44 93.35 7.89Q93.33 7.94 93.3 7.99Q92.91 8.74 92.91 9.68Q92.91 10.7 93.34 11.48Q93.59 11.92 93.94 12.25Q94.21 12.5 94.53 12.68Q94.69 12.77 94.86 12.84ZM110.6 6.82Q110.35 7.04 110.17 7.34L110.17 6.38L108.8 6.38L108.8 13L110.17 13L110.17 9.51Q110.17 8.51 110.58 8.1Q110.59 8.09 110.59 8.09Q111.01 7.69 111.8 7.69L112.15 7.69L112.15 6.27Q111.46 6.27 110.97 6.56Q110.77 6.67 110.6 6.82ZM114.41 12.82Q115.03 13.1 115.81 13.1Q116.58 13.1 117.15 12.85Q117.7 12.61 118.01 12.18Q118.02 12.17 118.03 12.16Q118.15 11.98 118.23 11.78Q118.34 11.49 118.34 11.15Q118.33 10.56 118.04 10.19Q118.02 10.16 117.99 10.13Q117.8 9.9 117.56 9.75Q117.39 9.63 117.19 9.55Q116.73 9.35 116.01 9.15Q115.47 9 115.19 8.9Q114.92 8.79 114.73 8.62Q114.64 8.53 114.59 8.43Q114.53 8.31 114.53 8.17Q114.53 8.02 114.59 7.9Q114.66 7.75 114.82 7.63Q115.11 7.43 115.65 7.43Q116.2 7.43 116.53 7.69Q116.66 7.8 116.74 7.94Q116.87 8.14 116.89 8.4L118.26 8.4Q118.23 7.76 117.93 7.3Q117.76 7.05 117.52 6.85Q117.49 6.82 117.45 6.79Q116.78 6.27 115.7 6.27Q114.94 6.27 114.36 6.53Q113.78 6.78 113.47 7.22Q113.3 7.45 113.22 7.7Q113.15 7.93 113.15 8.18Q113.15 8.77 113.43 9.15Q113.46 9.19 113.5 9.23Q113.73 9.49 114.02 9.67Q114.15 9.75 114.31 9.82Q114.78 10.01 115.52 10.21Q116.29 10.43 116.64 10.61Q116.84 10.71 116.93 10.87Q117 10.99 117 11.16Q117 11.29 116.95 11.4Q116.88 11.59 116.68 11.73Q116.36 11.95 115.78 11.95Q115.29 11.95 114.94 11.73Q114.9 11.7 114.87 11.67Q114.63 11.49 114.53 11.25Q114.48 11.11 114.46 10.97L113.05 10.97Q113.06 11.26 113.15 11.53Q113.25 11.81 113.43 12.05Q113.44 12.07 113.45 12.09Q113.81 12.55 114.41 12.82ZM107 13L107 6.38L105.63 6.38L105.63 10.07Q105.63 10.94 105.2 11.41Q105.19 11.42 105.18 11.43Q105.07 11.55 104.94 11.63Q104.54 11.9 103.96 11.9Q103.38 11.9 102.99 11.63Q102.86 11.54 102.75 11.43Q102.31 10.96 102.31 10.07L102.31 6.38L100.95 6.38L100.95 10.27Q100.95 11.17 101.3 11.81Q101.53 12.21 101.85 12.48Q102.05 12.65 102.28 12.77Q102.29 12.78 102.3 12.78Q102.91 13.09 103.68 13.09Q104.05 13.09 104.4 13Q104.6 12.94 104.78 12.86Q105.27 12.64 105.58 12.28Q105.61 12.25 105.63 12.22L105.63 13L107 13ZM96.74 11.85Q96.49 11.91 96.22 11.91Q95.76 11.91 95.39 11.74Q95.09 11.59 94.85 11.33Q94.83 11.32 94.82 11.3Q94.3 10.72 94.3 9.68Q94.3 8.96 94.57 8.47Q94.77 8.08 95.09 7.84Q95.18 7.77 95.28 7.72Q95.47 7.61 95.67 7.55Q95.95 7.46 96.26 7.46Q96.57 7.46 96.85 7.55Q97.05 7.61 97.24 7.72Q97.34 7.77 97.44 7.84Q97.76 8.08 97.97 8.47Q98.25 8.96 98.25 9.68Q98.25 10.4 97.96 10.91Q97.73 11.31 97.38 11.56Q97.3 11.61 97.21 11.66Q96.98 11.79 96.74 11.85Z" fill="#000000" fill-opacity="1.000000" fill-rule="evenodd"/>
	<path id="23" d="M102.47 49L85.88 49L85.88 45.45L94.17 37.78C96.28 35.75 97.42 34.47 97.42 32.62C97.42 30.57 95.89 29.3 93.85 29.3C91.72 29.3 90.32 30.67 90.32 32.89L85.65 32.89C85.64 28.32 89 25.4 93.88 25.4C98.87 25.4 102.17 28.25 102.17 32.29C102.17 34.94 100.88 37.12 96.1 41.49L92.7 44.82L92.7 44.97L102.47 44.97L102.47 49ZM124.88 42.46C124.89 46.44 121.15 49.32 115.93 49.32C110.81 49.32 107.18 46.49 107.09 42.42L112.05 42.42C112.14 44.12 113.76 45.25 115.93 45.25C118.18 45.25 119.78 43.99 119.76 42.13C119.78 40.25 118.13 38.94 115.49 38.94L113.32 38.94L113.32 35.32L115.49 35.32C117.73 35.32 119.29 34.09 119.28 32.25C119.29 30.5 117.96 29.3 115.97 29.3C113.96 29.3 112.33 30.45 112.28 32.22L107.56 32.22C107.63 28.2 111.22 25.4 115.99 25.4C120.81 25.4 124.03 28.29 124.01 31.96C124.03 34.57 122.23 36.42 119.63 36.88L119.63 37.07C123.05 37.5 124.89 39.57 124.88 42.46Z" fill="#000000" fill-opacity="1.000000" fill-rule="evenodd"/>
	<path id="Minutes" d="M175.79 5.42Q175.96 5.51 176.18 5.51Q176.36 5.51 176.52 5.44Q176.67 5.38 176.79 5.25Q176.9 5.15 176.96 5.02Q177.04 4.84 177.04 4.63Q177.04 4.42 176.96 4.24Q176.9 4.11 176.79 4.01Q176.67 3.89 176.52 3.82Q176.36 3.75 176.18 3.75Q175.96 3.75 175.79 3.84Q175.66 3.9 175.55 4.01Q175.44 4.11 175.38 4.24Q175.3 4.42 175.3 4.63Q175.3 4.84 175.38 5.02Q175.44 5.15 175.55 5.25Q175.66 5.36 175.79 5.42ZM173.68 13L173.68 4.65L172.22 4.65L169.3 11.2L166.37 4.65L164.89 4.65L164.89 13L166.26 13L166.26 7.28L168.82 13L169.77 13L172.31 7.28L172.31 13L173.68 13ZM195.82 11.16L195.82 7.5L197.43 7.5L197.43 6.38L195.82 6.38L195.82 4.74L194.44 4.74L194.44 6.38L193.66 6.38L193.66 7.5L194.44 7.5L194.44 11.16Q194.44 12.12 194.92 12.55Q194.92 12.56 194.93 12.56Q195.42 13 196.35 13L197.43 13L197.43 11.86L196.59 11.86Q196.17 11.86 195.99 11.69Q195.82 11.53 195.82 11.16ZM183.32 6.57Q182.73 6.27 181.98 6.27Q181.57 6.27 181.19 6.39Q181.03 6.43 180.87 6.5Q180.44 6.69 180.13 7.01Q180.07 7.07 180.02 7.14L180.02 6.38L178.65 6.38L178.65 13L180.02 13L180.02 9.3Q180.02 8.42 180.45 7.95Q180.46 7.94 180.46 7.94Q180.58 7.82 180.71 7.73Q181.11 7.46 181.68 7.46Q182.27 7.46 182.66 7.74Q182.79 7.82 182.89 7.94Q182.9 7.94 182.9 7.94Q183.34 8.42 183.34 9.3L183.34 13L184.7 13L184.7 9.1Q184.7 8.2 184.35 7.56Q184.13 7.16 183.81 6.88Q183.61 6.72 183.38 6.6Q183.35 6.58 183.32 6.57ZM204.7 10.2Q204.75 9.9 204.75 9.53Q204.75 8.59 204.36 7.87Q204.35 7.85 204.34 7.83Q204.13 7.45 203.83 7.15Q203.55 6.88 203.2 6.68Q203.13 6.64 203.06 6.61Q202.38 6.27 201.53 6.27Q200.61 6.27 199.88 6.66Q199.85 6.68 199.81 6.7Q199.48 6.88 199.22 7.13Q198.88 7.45 198.65 7.89Q198.23 8.66 198.23 9.68Q198.23 10.7 198.66 11.48Q198.9 11.92 199.25 12.25Q199.51 12.5 199.83 12.68Q199.94 12.74 200.05 12.79Q200.72 13.1 201.53 13.1Q202.6 13.1 203.35 12.62Q203.41 12.57 203.48 12.52Q203.91 12.2 204.2 11.78Q204.43 11.44 204.57 11.03L203.09 11.03Q202.89 11.43 202.57 11.66Q202.15 11.95 201.53 11.95Q201.04 11.95 200.65 11.76Q200.43 11.65 200.23 11.47Q200.07 11.32 199.95 11.14Q199.69 10.75 199.65 10.2L204.7 10.2ZM207.09 12.82Q207.71 13.1 208.49 13.1Q209.26 13.1 209.83 12.85Q210.38 12.61 210.69 12.18Q210.7 12.17 210.71 12.16Q210.84 11.98 210.91 11.78Q211.02 11.49 211.02 11.15Q211.01 10.56 210.73 10.19Q210.7 10.16 210.68 10.13Q210.48 9.9 210.24 9.75Q210.07 9.63 209.88 9.55Q209.42 9.35 208.7 9.15Q208.16 9 207.88 8.9Q207.6 8.79 207.41 8.62Q207.32 8.53 207.27 8.43Q207.22 8.31 207.22 8.17Q207.22 8.02 207.27 7.9Q207.34 7.75 207.51 7.63Q207.8 7.43 208.34 7.43Q208.89 7.43 209.21 7.69Q209.34 7.8 209.43 7.94Q209.55 8.14 209.57 8.4L210.94 8.4Q210.91 7.76 210.61 7.3Q210.45 7.05 210.2 6.85Q210.17 6.82 210.14 6.79Q209.46 6.27 208.38 6.27Q207.63 6.27 207.04 6.53Q206.46 6.78 206.15 7.22Q205.99 7.45 205.91 7.7Q205.84 7.93 205.84 8.18Q205.84 8.77 206.12 9.15Q206.15 9.19 206.18 9.23Q206.41 9.49 206.7 9.67Q206.84 9.75 206.99 9.82Q207.46 10.01 208.2 10.21Q208.97 10.43 209.33 10.61Q209.52 10.71 209.61 10.87Q209.68 10.99 209.68 11.16Q209.68 11.29 209.64 11.4Q209.56 11.59 209.36 11.73Q209.04 11.95 208.47 11.95Q207.97 11.95 207.63 11.73Q207.59 11.7 207.55 11.67Q207.31 11.49 207.21 11.25Q207.16 11.11 207.15 10.97L205.73 10.97Q205.74 11.26 205.84 11.53Q205.93 11.81 206.11 12.05Q206.13 12.07 206.14 12.09Q206.49 12.55 207.09 12.82ZM176.85 13L176.85 6.38L175.48 6.38L175.48 13L176.85 13ZM192.42 13L192.42 6.38L191.06 6.38L191.06 10.07Q191.06 10.94 190.62 11.41Q190.61 11.42 190.6 11.43Q190.49 11.55 190.37 11.63Q189.97 11.9 189.39 11.9Q188.81 11.9 188.41 11.63Q188.28 11.54 188.18 11.43Q187.73 10.96 187.73 10.07L187.73 6.38L186.38 6.38L186.38 10.27Q186.38 11.17 186.73 11.81Q186.95 12.21 187.28 12.48Q187.47 12.65 187.7 12.77Q187.71 12.78 187.72 12.78Q188.33 13.09 189.1 13.09Q189.48 13.09 189.82 13Q190.02 12.94 190.21 12.86Q190.69 12.64 191.01 12.28Q191.03 12.25 191.06 12.22L191.06 13L192.42 13ZM203.11 8.27Q203.31 8.63 203.32 9.1L199.66 9.1Q199.73 8.51 200.05 8.11Q200.14 7.98 200.26 7.88Q200.47 7.69 200.71 7.58Q201.06 7.43 201.47 7.43Q202.04 7.43 202.47 7.67Q202.64 7.76 202.78 7.88Q202.98 8.06 203.11 8.27Z" fill="#000000" fill-opacity="1.000000" fill-rule="evenodd"/>
	<path id="19" d="M182.55 33.47C182.53 28.79 186.04 25.38 191.24 25.4C196.03 25.42 200.53 28.32 200.54 36.75C200.55 44.65 196.83 49.32 191.07 49.32C186.41 49.32 183.23 46.35 182.78 42.42L187.63 42.42C188 44.12 189.29 45.1 191.07 45.1C194.11 45.1 195.71 42.29 195.72 37.67L195.56 37.67C194.53 39.72 192.25 40.96 189.69 40.96C185.57 40.96 182.56 37.82 182.55 33.47ZM171.38 25.72L176 25.72L176 49L171.09 49L171.09 30.39L170.95 30.39L165.62 33.74L165.62 29.37L171.38 25.72ZM195.23 33.32C195.21 31.11 193.54 29.27 191.28 29.27C188.99 29.27 187.3 31.07 187.32 33.34C187.33 35.62 188.96 37.39 191.23 37.39C193.48 37.39 195.24 35.55 195.23 33.32Z" fill="#000000" fill-opacity="1.000000" fill-rule="evenodd"/>
	<path id="Seconds" d="M289.15 7.89Q288.74 8.66 288.74 9.66Q288.74 10.62 289.12 11.39Q289.14 11.42 289.15 11.44Q289.44 11.99 289.87 12.37Q290.06 12.53 290.28 12.67Q290.56 12.84 290.86 12.94Q291.33 13.1 291.86 13.1Q292.62 13.1 293.22 12.79Q293.81 12.48 294.15 12L294.15 13L295.53 13L295.53 4.12L294.15 4.12L294.15 7.31Q293.78 6.84 293.15 6.56Q292.6 6.31 292.05 6.28Q291.96 6.27 291.87 6.27Q291.28 6.27 290.76 6.47Q290.51 6.56 290.28 6.7Q290.04 6.84 289.83 7.03Q289.42 7.38 289.15 7.89ZM253.13 12.79Q253.8 13.08 254.64 13.08Q255.53 13.08 256.18 12.74Q256.77 12.43 257.1 11.95Q257.14 11.89 257.18 11.83Q257.4 11.47 257.48 11.09Q257.52 10.86 257.52 10.63Q257.52 9.84 257.16 9.37Q256.9 9.03 256.56 8.82Q256.42 8.73 256.27 8.66Q255.75 8.44 254.92 8.21Q254.29 8.04 253.93 7.89Q253.58 7.75 253.34 7.5Q253.28 7.43 253.23 7.35Q253.11 7.15 253.11 6.87Q253.11 6.47 253.3 6.21Q253.37 6.1 253.48 6.01Q253.51 5.99 253.54 5.97Q253.9 5.71 254.44 5.71Q255.06 5.71 255.45 6.01Q255.47 6.03 255.48 6.04Q255.75 6.25 255.85 6.53Q255.9 6.67 255.91 6.82L257.43 6.82Q257.38 6.17 257.06 5.69Q256.87 5.39 256.57 5.15Q256.53 5.12 256.48 5.09Q255.73 4.55 254.58 4.55Q253.73 4.55 253.08 4.84Q252.59 5.06 252.26 5.42Q252.16 5.54 252.08 5.66Q252 5.78 251.94 5.9Q251.72 6.35 251.72 6.92Q251.72 7.7 252.08 8.17Q252.34 8.51 252.68 8.72Q252.81 8.8 252.95 8.86Q253.46 9.08 254.27 9.3Q254.92 9.47 255.28 9.61Q255.62 9.74 255.86 9.98Q255.88 10 255.9 10.02Q255.95 10.08 255.99 10.14Q256.14 10.38 256.14 10.7Q256.14 11 256.03 11.23Q255.93 11.43 255.75 11.59Q255.35 11.93 254.64 11.93Q253.97 11.93 253.6 11.59Q253.59 11.59 253.58 11.58Q253.43 11.44 253.33 11.27Q253.18 11.02 253.15 10.69L251.69 10.69Q251.69 11.2 251.89 11.62Q251.96 11.79 252.08 11.95Q252.13 12.03 252.2 12.11Q252.56 12.53 253.13 12.79ZM265.15 10.2Q265.2 9.9 265.2 9.53Q265.2 8.59 264.82 7.87Q264.81 7.85 264.79 7.83Q264.58 7.45 264.28 7.15Q264.01 6.88 263.65 6.68Q263.58 6.64 263.51 6.61Q262.83 6.27 261.99 6.27Q261.06 6.27 260.34 6.66Q260.3 6.68 260.26 6.7Q259.94 6.88 259.68 7.13Q259.34 7.45 259.1 7.89Q258.69 8.66 258.69 9.68Q258.69 10.7 259.11 11.48Q259.36 11.92 259.71 12.25Q259.97 12.5 260.29 12.68Q260.39 12.74 260.5 12.79Q261.17 13.1 261.99 13.1Q263.05 13.1 263.8 12.62Q263.87 12.57 263.94 12.52Q264.37 12.2 264.66 11.78Q264.89 11.44 265.02 11.03L263.55 11.03Q263.35 11.43 263.02 11.66Q262.61 11.95 261.99 11.95Q261.5 11.95 261.11 11.76Q260.88 11.65 260.69 11.47Q260.53 11.32 260.41 11.14Q260.14 10.75 260.1 10.2L265.15 10.2ZM266.51 7.89Q266.09 8.66 266.09 9.68Q266.09 10.7 266.51 11.48Q266.76 11.95 267.13 12.29Q267.37 12.51 267.65 12.68Q267.73 12.72 267.81 12.76Q268.48 13.1 269.33 13.1Q270.4 13.1 271.15 12.62Q271.22 12.57 271.3 12.51Q271.59 12.29 271.81 12.02Q272.2 11.54 272.38 10.91L270.9 10.91Q270.73 11.38 270.39 11.64Q269.98 11.95 269.33 11.95Q268.83 11.95 268.45 11.74Q268.19 11.59 267.99 11.35Q267.5 10.75 267.5 9.68Q267.5 8.62 267.99 8.02Q268.19 7.79 268.44 7.64Q268.82 7.43 269.33 7.43Q269.93 7.43 270.33 7.7Q270.44 7.78 270.54 7.88Q270.78 8.12 270.9 8.47L272.38 8.47Q272.17 7.68 271.68 7.16Q271.51 6.99 271.32 6.85Q270.53 6.27 269.33 6.27Q268.47 6.27 267.79 6.62Q267.72 6.66 267.65 6.7Q267.38 6.85 267.15 7.06Q266.76 7.41 266.51 7.89ZM275.26 12.84Q275.88 13.1 276.62 13.1Q277.33 13.1 277.95 12.86Q278.15 12.78 278.35 12.68Q278.71 12.48 279.01 12.21Q279.35 11.89 279.59 11.47Q279.65 11.38 279.69 11.28Q280.05 10.57 280.05 9.68Q280.05 8.75 279.66 8.01Q279.64 7.95 279.6 7.89Q279.34 7.44 278.97 7.1Q278.71 6.87 278.39 6.7Q278.24 6.61 278.09 6.55Q277.44 6.27 276.68 6.27Q275.9 6.27 275.25 6.56Q275.1 6.62 274.96 6.7Q274.64 6.87 274.38 7.1Q274.01 7.44 273.75 7.89Q273.72 7.94 273.69 7.99Q273.3 8.74 273.3 9.68Q273.3 10.7 273.74 11.48Q273.98 11.92 274.34 12.25Q274.6 12.5 274.92 12.68Q275.09 12.77 275.26 12.84ZM286.08 6.57Q285.48 6.27 284.74 6.27Q284.33 6.27 283.95 6.39Q283.79 6.43 283.63 6.5Q283.19 6.69 282.88 7.01Q282.82 7.07 282.77 7.14L282.77 6.38L281.4 6.38L281.4 13L282.77 13L282.77 9.3Q282.77 8.42 283.21 7.95Q283.21 7.94 283.22 7.94Q283.33 7.82 283.47 7.73Q283.87 7.46 284.44 7.46Q285.02 7.46 285.42 7.74Q285.54 7.82 285.65 7.94Q285.65 7.94 285.66 7.94Q286.1 8.42 286.1 9.3L286.1 13L287.45 13L287.45 9.1Q287.45 8.2 287.1 7.56Q286.89 7.16 286.56 6.88Q286.37 6.72 286.14 6.6Q286.11 6.58 286.08 6.57ZM298.33 12.82Q298.95 13.1 299.73 13.1Q300.5 13.1 301.07 12.85Q301.62 12.61 301.93 12.18Q301.94 12.17 301.95 12.16Q302.07 11.98 302.15 11.78Q302.26 11.49 302.26 11.15Q302.25 10.56 301.96 10.19Q301.94 10.16 301.91 10.13Q301.72 9.9 301.48 9.75Q301.31 9.63 301.11 9.55Q300.65 9.35 299.93 9.15Q299.39 9 299.11 8.9Q298.84 8.79 298.65 8.62Q298.56 8.53 298.51 8.43Q298.45 8.31 298.45 8.17Q298.45 8.02 298.51 7.9Q298.58 7.75 298.74 7.63Q299.03 7.43 299.57 7.43Q300.12 7.43 300.45 7.69Q300.58 7.8 300.66 7.94Q300.79 8.14 300.81 8.4L302.18 8.4Q302.15 7.76 301.85 7.3Q301.68 7.05 301.44 6.85Q301.41 6.82 301.37 6.79Q300.7 6.27 299.62 6.27Q298.86 6.27 298.28 6.53Q297.7 6.78 297.39 7.22Q297.22 7.45 297.14 7.7Q297.07 7.93 297.07 8.18Q297.07 8.77 297.35 9.15Q297.38 9.19 297.42 9.23Q297.65 9.49 297.94 9.67Q298.07 9.75 298.23 9.82Q298.7 10.01 299.44 10.21Q300.21 10.43 300.56 10.61Q300.76 10.71 300.85 10.87Q300.92 10.99 300.92 11.16Q300.92 11.29 300.87 11.4Q300.8 11.59 300.6 11.73Q300.28 11.95 299.7 11.95Q299.21 11.95 298.86 11.73Q298.82 11.7 298.79 11.67Q298.55 11.49 298.45 11.25Q298.4 11.11 298.38 10.97L296.97 10.97Q296.98 11.26 297.07 11.53Q297.17 11.81 297.35 12.05Q297.36 12.07 297.37 12.09Q297.73 12.55 298.33 12.82ZM263.56 8.27Q263.77 8.63 263.77 9.1L260.12 9.1Q260.19 8.51 260.5 8.11Q260.6 7.98 260.72 7.88Q260.93 7.69 261.17 7.58Q261.51 7.43 261.93 7.43Q262.5 7.43 262.93 7.67Q263.09 7.76 263.24 7.88Q263.44 8.06 263.56 8.27ZM277.13 11.85Q276.88 11.91 276.62 11.91Q276.16 11.91 275.78 11.74Q275.48 11.59 275.24 11.33Q275.23 11.32 275.21 11.3Q274.7 10.72 274.7 9.68Q274.7 8.96 274.96 8.47Q275.17 8.08 275.48 7.84Q275.57 7.77 275.67 7.72Q275.86 7.61 276.06 7.55Q276.34 7.46 276.65 7.46Q276.96 7.46 277.24 7.55Q277.45 7.61 277.63 7.72Q277.74 7.77 277.83 7.84Q278.15 8.08 278.37 8.47Q278.64 8.96 278.64 9.68Q278.64 10.4 278.35 10.91Q278.12 11.31 277.77 11.56Q277.69 11.61 277.6 11.66Q277.38 11.79 277.13 11.85ZM293.86 8.5Q294.15 9 294.15 9.68Q294.15 10.37 293.86 10.88Q293.63 11.3 293.27 11.55Q293.2 11.61 293.13 11.65Q292.91 11.78 292.67 11.84Q292.42 11.91 292.14 11.91Q291.96 11.91 291.78 11.88Q291.46 11.82 291.17 11.64Q291.08 11.59 291 11.53Q290.65 11.28 290.42 10.86Q290.14 10.34 290.14 9.66Q290.14 8.98 290.42 8.48Q290.64 8.08 290.98 7.84Q291.06 7.78 291.16 7.72Q291.38 7.6 291.62 7.53Q291.87 7.46 292.14 7.46Q292.42 7.46 292.67 7.53Q292.91 7.6 293.13 7.73Q293.21 7.78 293.29 7.84Q293.64 8.09 293.86 8.5Z" fill="#000000" fill-opacity="1.000000" fill-rule="evenodd"/>
	<path id="56" d="M292.42 41.2C292.43 45.94 288.9 49.34 283.72 49.32C278.93 49.29 274.41 46.4 274.42 37.88C274.45 30.07 278.14 25.4 283.89 25.4C288.53 25.4 291.72 28.39 292.18 32.22L287.33 32.22C286.96 30.6 285.67 29.62 283.89 29.62C280.85 29.62 279.27 32.44 279.24 36.97L279.4 36.97C280.45 34.92 282.71 33.69 285.27 33.69C289.39 33.69 292.43 36.84 292.42 41.2ZM270.07 41.24C270.09 45.94 266.57 49.32 261.38 49.32C256.57 49.32 253.05 46.44 252.96 42.42L257.74 42.42C257.85 44.22 259.43 45.45 261.38 45.45C263.69 45.45 265.34 43.78 265.34 41.36C265.34 38.92 263.65 37.22 261.32 37.21C259.94 37.21 258.55 37.82 257.84 38.78L253.46 38L254.57 25.72L268.79 25.72L268.79 29.75L258.62 29.75L258.02 35.57L258.15 35.57C258.97 34.42 260.74 33.57 262.78 33.57C266.97 33.57 270.09 36.78 270.07 41.24ZM279.74 41.35C279.74 43.62 281.42 45.45 283.7 45.45C285.97 45.45 287.66 43.67 287.65 41.34C287.66 39.03 286 37.25 283.73 37.25C281.47 37.25 279.75 39.09 279.74 41.35Z" fill="#000000" fill-opacity="1.000000" fill-rule="evenodd"/>
	<circle id="Ellipse 17" cx="65.000000" cy="28.000000" r="2.000000" fill="#E07575" fill-opacity="1.000000"/>
	<circle id="Ellipse 18" cx="65.000000" cy="40.000000" r="2.000000" fill="#E07575" fill-opacity="1.000000"/>
	<circle id="Ellipse 17" cx="145.000000" cy="28.000000" r="2.000000" fill="#E07575" fill-opacity="1.000000"/>
	<circle id="Ellipse 18" cx="145.000000" cy="40.000000" r="2.000000" fill="#E07575" fill-opacity="1.000000"/>
	<circle id="Ellipse 17" cx="232.000000" cy="28.000000" r="2.000000" fill="#E07575" fill-opacity="1.000000"/>
	<circle id="Ellipse 18" cx="232.000000" cy="40.000000" r="2.000000" fill="#E07575" fill-opacity="1.000000"/>
</svg>
