<svg width="27.058960" height="24.000000" viewBox="0 0 27.059 24" fill="none" xmlns="http://www.w3.org/2000/svg" xmlns:xlink="http://www.w3.org/1999/xlink">
	<desc>
			Created with Pixso.
	</desc>
	<defs/>
	<path id="Vector" d="M20.9 6C20.14 6 19.41 6.29 18.87 6.83C18.33 7.36 18.01 8.08 18 8.84L17.97 10.42C17.97 10.5 17.95 10.59 17.91 10.66C17.88 10.74 17.83 10.81 17.76 10.86C17.7 10.92 17.62 10.96 17.54 10.98C17.46 11.01 17.38 11.01 17.29 11L15.73 10.79C13.68 10.51 11.71 9.56 9.82 7.99C9.22 11.3 10.39 13.59 13.2 15.36L14.95 16.46C15.03 16.51 15.1 16.58 15.15 16.67C15.2 16.75 15.23 16.85 15.23 16.95C15.23 17.05 15.21 17.14 15.17 17.23C15.13 17.32 15.06 17.4 14.99 17.45L13.39 18.62C14.34 18.68 15.24 18.63 15.99 18.49C20.7 17.54 23.84 13.99 23.84 8.14C23.84 7.66 22.83 6 20.9 6ZM16 8.81C16.02 7.84 16.32 6.91 16.87 6.11C17.41 5.32 18.18 4.7 19.08 4.35C19.97 3.99 20.96 3.9 21.9 4.1C22.84 4.29 23.71 4.77 24.39 5.45C25.1 5.45 25.7 5.63 27.05 4.81C26.72 6.45 26.55 7.16 25.84 8.14C25.84 15.78 21.14 19.5 16.38 20.45C13.11 21.1 8.36 20.03 7 18.61C7.69 18.55 10.51 18.25 12.14 17.06C10.76 16.15 5.27 12.92 8.88 4.23C10.57 6.21 12.29 7.56 14.03 8.27C15.19 8.74 15.47 8.73 16 8.81L16 8.81Z" fill="#FFFFFF" fill-opacity="1.000000" fill-rule="nonzero"/>
	<path id="Vector" d="M24.39 5.45C23.71 4.77 22.84 4.29 21.9 4.1C20.96 3.9 19.97 3.99 19.08 4.35C18.18 4.7 17.41 5.32 16.87 6.11C16.36 6.85 16.06 7.71 16.01 8.61C16 8.67 16 8.74 16 8.81L16 8.81C15.93 8.8 15.86 8.79 15.8 8.78C15.38 8.73 15.03 8.68 14.03 8.27C12.34 7.58 10.67 6.29 9.02 4.4C8.98 4.35 8.93 4.29 8.88 4.23C8.85 4.3 8.82 4.37 8.79 4.44C5.49 12.63 10.36 15.89 11.96 16.94C11.97 16.95 11.99 16.96 12 16.97C12.05 17 12.1 17.03 12.14 17.06C12.08 17.1 12.02 17.14 11.96 17.18C10.48 18.16 8.19 18.49 7.26 18.58C7.15 18.59 7.06 18.6 7 18.61C7.05 18.67 7.12 18.73 7.19 18.79C8.77 20.12 13.25 21.07 16.38 20.45C21.14 19.5 25.84 15.78 25.84 8.14C26.51 7.21 26.7 6.53 27 5.07C27.02 4.99 27.04 4.9 27.05 4.81C26.97 4.85 26.9 4.9 26.82 4.94C25.83 5.5 25.26 5.48 24.71 5.46C24.6 5.45 24.5 5.45 24.39 5.45ZM26.77 5.2Q26.2 5.49 25.72 5.6Q25.45 5.65 25.17 5.66Q25.01 5.67 24.71 5.66Q24.49 5.65 24.39 5.65L24.3 5.65L24.24 5.59Q24 5.35 23.72 5.14Q23.45 4.93 23.15 4.77Q22.84 4.6 22.52 4.48Q22.2 4.36 21.86 4.29Q21.52 4.22 21.18 4.2Q20.83 4.18 20.49 4.21Q20.14 4.24 19.81 4.32Q19.48 4.4 19.15 4.53Q18.83 4.66 18.53 4.83Q18.24 5.01 17.97 5.22Q17.7 5.44 17.46 5.69Q17.23 5.94 17.03 6.22Q16.83 6.51 16.68 6.82Q16.53 7.13 16.42 7.46Q16.32 7.79 16.26 8.12Q16.21 8.42 16.2 8.73L16.56 9.09L15.97 9.01Q15.91 9 15.79 8.98Q15.37 8.93 15.09 8.86Q14.65 8.74 13.95 8.45Q11.41 7.41 8.94 4.61Q7.86 7.33 7.87 9.63Q7.88 11.38 8.52 12.86Q8.61 13.07 8.72 13.28Q9.37 14.55 10.5 15.58Q10.91 15.96 11.39 16.31Q11.67 16.51 12.11 16.8Q12.21 16.86 12.25 16.89L12.49 17.05L12.26 17.22Q11.18 18.01 9.26 18.45Q8.6 18.61 7.89 18.71Q7.68 18.74 7.48 18.76Q7.93 19.09 8.65 19.4Q9.68 19.83 11.01 20.11Q12.37 20.39 13.73 20.43Q15.18 20.48 16.34 20.25Q18.01 19.92 19.47 19.18Q19.62 19.1 19.77 19.02Q21.06 18.32 22.09 17.34Q22.43 17.02 22.75 16.67Q23 16.38 23.23 16.08Q24.25 14.75 24.84 13.08Q25.64 10.86 25.64 8.14L25.64 8.07L25.68 8.02Q25.94 7.67 26.11 7.34Q26.27 7.02 26.4 6.66Q26.51 6.32 26.63 5.83Q26.68 5.6 26.77 5.2ZM19.19 6.31Q18.95 6.47 18.73 6.68Q18.51 6.9 18.34 7.14Q18.17 7.39 18.05 7.67Q17.93 7.95 17.87 8.24Q17.81 8.54 17.8 8.84L17.77 10.41Q17.77 10.46 17.76 10.49Q17.75 10.54 17.73 10.58Q17.72 10.62 17.69 10.65Q17.66 10.68 17.63 10.71Q17.6 10.74 17.56 10.76Q17.53 10.78 17.49 10.79Q17.44 10.8 17.4 10.81Q17.36 10.81 17.32 10.8L15.76 10.59Q12.77 10.18 9.95 7.84L9.69 7.62L9.62 7.95Q9.17 10.47 10.05 12.34Q10.91 14.15 13.1 15.53L14.84 16.63Q14.89 16.66 14.92 16.69Q14.95 16.73 14.98 16.77Q15 16.81 15.02 16.86Q15.03 16.9 15.03 16.95Q15.03 17 15.02 17.05Q15.01 17.1 14.99 17.14Q14.97 17.19 14.94 17.23Q14.91 17.26 14.87 17.29L12.83 18.78L13.38 18.82Q14.88 18.91 16.02 18.68Q17.84 18.32 19.3 17.47Q20.26 16.91 21.03 16.17Q21.46 15.75 21.84 15.28Q22.91 13.92 23.47 12.15Q24.04 10.33 24.04 8.14Q24.04 7.89 23.83 7.5Q23.6 7.1 23.23 6.74Q22.9 6.43 22.52 6.21Q22.39 6.14 22.25 6.08Q22.03 5.98 21.79 5.92Q21.36 5.8 20.9 5.8Q20.6 5.8 20.3 5.85Q20.01 5.91 19.73 6.03Q19.44 6.14 19.19 6.31ZM20.9 6C20.14 6 19.41 6.29 18.87 6.83C18.33 7.36 18.01 8.08 18 8.84L17.97 10.42C17.97 10.5 17.95 10.59 17.91 10.66C17.88 10.74 17.83 10.81 17.76 10.86C17.7 10.92 17.62 10.96 17.54 10.98C17.46 11.01 17.38 11.01 17.29 11L15.73 10.79C13.74 10.52 11.83 9.62 10 8.14C9.94 8.09 9.88 8.04 9.82 7.99C9.81 8.07 9.79 8.14 9.78 8.22C9.28 11.41 10.46 13.63 13.2 15.36L14.95 16.46C15.03 16.51 15.1 16.58 15.15 16.67C15.2 16.75 15.23 16.85 15.23 16.95C15.23 17.05 15.21 17.14 15.17 17.23C15.13 17.32 15.06 17.4 14.99 17.45L13.65 18.43L13.39 18.62C13.5 18.62 13.61 18.63 13.71 18.63C14.54 18.66 15.32 18.62 15.99 18.49C20.7 17.54 23.84 13.99 23.84 8.14C23.84 7.66 22.83 6 20.9 6Z" fill="#000000" fill-opacity="1.000000" fill-rule="evenodd"/>
</svg>
