<svg width="80.004883" height="80.000000" viewBox="0 0 80.0049 80" fill="none" xmlns="http://www.w3.org/2000/svg" xmlns:xlink="http://www.w3.org/1999/xlink">
	<desc>
			Created with Pixso.
	</desc>
	<defs/>
	<rect id="Services" rx="0.000000" width="79.000000" height="79.000000" transform="translate(0.500000 0.500000)" fill="#FFFFFF" fill-opacity="0"/>
	<g opacity="0.300000">
		<path id="Ellipse 6" d="M77.96 27.42C75.11 18.8 69.32 11.09 61 5.95C53.27 1.19 43.88 -1 34.2 0.43C25.21 1.74 16.62 6.09 10.12 13.41C4.08 20.19 0.3 29.05 0.02 38.83C-0.25 47.91 2.55 57.13 8.62 64.8C14.25 71.92 22.32 77.19 31.9 79.16C40.8 81 50.36 79.85 58.97 75.2C66.97 70.89 73.55 63.86 77.16 54.76C80.52 46.33 81.04 36.7 77.96 27.42ZM35.78 11.22C42.32 10.25 49.22 11.5 55.27 15.24C60.89 18.71 65.38 24.09 67.61 30.85C69.69 37.12 69.66 44.13 67.02 50.74C64.59 56.88 60.06 62.23 53.79 65.6C47.98 68.74 41.08 69.93 34.11 68.48C27.64 67.15 21.58 63.62 17.18 58.03C13.08 52.85 10.71 46.26 10.92 39.14C11.11 32.54 13.53 25.97 18.27 20.66C22.66 15.72 28.74 12.24 35.78 11.22Z" fill="#2F2E30" fill-opacity="1.000000" fill-rule="evenodd"/>
	</g>
	<circle id="Ellipse 5" cx="40.000000" cy="40.000000" r="29.000000" fill="#000000" fill-opacity="1.000000"/>
	<rect id="Icon-secure" rx="0.000000" width="39.000000" height="39.000000" transform="translate(20.500000 20.500000)" fill="#FFFFFF" fill-opacity="0"/>
	<path id="Vector" d="M40 57.93C38.18 57.93 36.38 57.39 34.96 56.34L27.8 51C25.9 49.58 24.41 46.61 24.41 44.26L24.41 31.86C24.41 29.29 26.3 26.56 28.71 25.66L37.03 22.54C38.68 21.93 41.28 21.93 42.93 22.54L51.25 25.66C53.66 26.56 55.55 29.29 55.55 31.86L55.55 44.25C55.55 46.61 54.06 49.56 52.16 50.98L45 56.33C43.61 57.39 41.81 57.93 40 57.93ZM37.91 24.89L29.6 28.01C28.18 28.54 26.93 30.34 26.93 31.88L26.93 44.26C26.93 45.84 28.05 48.06 29.3 49L36.46 54.34C38.38 55.78 41.61 55.78 43.55 54.34L50.71 49C51.98 48.04 53.08 45.84 53.08 44.26L53.08 31.86C53.08 30.34 51.83 28.54 50.41 28L42.1 24.88C40.96 24.48 39.03 24.48 37.91 24.89Z" fill="#FAFAFA" fill-opacity="1.000000" fill-rule="nonzero"/>
	<path id="Vector" d="M40 57.93C38.18 57.93 36.38 57.39 34.96 56.34L27.8 51C25.9 49.58 24.41 46.61 24.41 44.26L24.41 31.86C24.41 29.29 26.3 26.56 28.71 25.66L37.03 22.54C38.68 21.93 41.28 21.93 42.93 22.54L51.25 25.66C53.66 26.56 55.55 29.29 55.55 31.86L55.55 44.25C55.55 46.61 54.06 49.56 52.16 50.98L45 56.33C43.61 57.39 41.81 57.93 40 57.93ZM35.56 55.54Q35.56 55.54 35.56 55.54L28.39 50.19Q26.89 49.07 26.15 47.58Q25.41 46.1 25.41 44.26L25.41 31.86Q25.41 29.9 26.33 28.58Q27.24 27.28 29.06 26.6L37.38 23.48Q38.68 23 39.98 23Q41.28 23 42.58 23.48L50.89 26.6Q52.71 27.28 53.63 28.59Q54.55 29.9 54.55 31.86L54.55 44.25Q54.55 46.09 53.81 47.56Q53.06 49.06 51.56 50.18L44.4 55.53Q43.99 55.84 43.55 56.08Q42 56.93 40 56.93Q38.09 56.93 36.57 56.16Q36.04 55.9 35.56 55.54ZM37.56 23.96L29.24 27.08L29.24 27.08Q27.6 27.7 26.77 28.89Q25.93 30.09 25.93 31.88L25.93 44.26Q25.93 46.01 26.63 47.4Q27.33 48.77 28.7 49.8L35.86 55.15Q36.17 55.37 36.49 55.56Q38 56.42 40 56.42Q41.97 56.42 43.48 55.58Q43.82 55.38 44.14 55.15L51.31 49.8Q52.7 48.76 53.39 47.37Q54.08 45.99 54.08 44.26L54.08 31.86Q54.08 30.13 53.27 28.94Q52.45 27.71 50.77 27.06L42.45 23.94Q41.04 23.45 39.66 23.52Q38.6 23.57 37.56 23.96ZM37.91 24.89L29.6 28.01C28.18 28.54 26.93 30.34 26.93 31.88L26.93 44.26C26.93 45.84 28.05 48.06 29.3 49L36.46 54.34C38.38 55.78 41.61 55.78 43.55 54.34L50.71 49C51.98 48.04 53.08 45.84 53.08 44.26L53.08 31.86C53.08 30.34 51.83 28.54 50.41 28L42.1 24.88C40.96 24.48 39.03 24.48 37.91 24.89Z" fill="#FAFAFA" fill-opacity="1.000000" fill-rule="evenodd"/>
	<path id="Vector" d="M37.76 43.71C37.45 43.71 37.13 43.6 36.88 43.35L34.2 40.66C33.71 40.18 33.71 39.38 34.2 38.9C34.68 38.41 35.48 38.41 35.96 38.9L37.76 40.7L44.05 34.41C44.53 33.93 45.33 33.93 45.81 34.41C46.3 34.9 46.3 35.7 45.81 36.18L38.65 43.35C38.4 43.6 38.08 43.71 37.76 43.71Z" fill="#FAFAFA" fill-opacity="1.000000" fill-rule="nonzero"/>
	<path id="Vector" d="M37.05 39.99L35.96 38.9C35.48 38.41 34.68 38.41 34.2 38.9C33.71 39.38 33.71 40.18 34.2 40.66L36.88 43.35C37.13 43.6 37.45 43.71 37.76 43.71C38.08 43.71 38.4 43.6 38.65 43.35L45.81 36.18C46.3 35.7 46.3 34.9 45.81 34.41C45.33 33.93 44.53 33.93 44.05 34.41L38.47 39.99L37.76 40.7L37.05 39.99ZM37.67 42.7Q37.62 42.68 37.59 42.64L34.9 39.95Q34.88 39.93 34.86 39.9Q34.83 39.85 34.83 39.78Q34.83 39.71 34.86 39.66Q34.88 39.63 34.9 39.6Q34.93 39.58 34.96 39.56Q35.01 39.53 35.08 39.53Q35.15 39.53 35.2 39.56Q35.23 39.58 35.25 39.6L37.76 42.11L44.75 35.12Q44.78 35.09 44.81 35.08Q44.86 35.05 44.93 35.05Q45 35.05 45.05 35.08Q45.08 35.09 45.11 35.12Q45.13 35.14 45.15 35.17Q45.17 35.23 45.17 35.3Q45.17 35.36 45.15 35.42Q45.13 35.45 45.11 35.47L37.94 42.64Q37.9 42.68 37.85 42.7Q37.81 42.71 37.76 42.71Q37.71 42.71 37.67 42.7Z" fill="#FAFAFA" fill-opacity="1.000000" fill-rule="evenodd"/>
	<g opacity="0.000000">
		<path id="Vector" d="M60 20L20 20L20 60L60 60L60 20ZM21 59L21 21L59 21L59 59L21 59Z" fill="#FAFAFA" fill-opacity="1.000000" fill-rule="evenodd"/>
	</g>
</svg>
