<svg width="80.004883" height="80.000000" viewBox="0 0 80.0049 80" fill="none" xmlns="http://www.w3.org/2000/svg" xmlns:xlink="http://www.w3.org/1999/xlink">
	<desc>
			Created with Pixso.
	</desc>
	<defs>
		<clipPath id="clip19_6048">
			<rect id="icon-delivery" rx="0.000000" width="39.000000" height="39.000000" transform="translate(20.500000 20.500000)" fill="white" fill-opacity="0"/>
		</clipPath>
	</defs>
	<rect id="Services" rx="0.000000" width="79.000000" height="79.000000" transform="translate(0.500000 0.500000)" fill="#FFFFFF" fill-opacity="0"/>
	<g opacity="0.300000">
		<path id="Ellipse 6" d="M77.96 27.42C75.11 18.8 69.32 11.09 61 5.95C53.27 1.19 43.88 -1 34.2 0.43C25.21 1.74 16.62 6.09 10.12 13.41C4.08 20.19 0.3 29.05 0.02 38.83C-0.25 47.91 2.55 57.13 8.62 64.8C14.25 71.92 22.32 77.19 31.9 79.16C40.8 81 50.36 79.85 58.97 75.2C66.97 70.89 73.55 63.86 77.16 54.76C80.52 46.33 81.04 36.7 77.96 27.42ZM35.78 11.22C42.32 10.25 49.22 11.5 55.27 15.24C60.89 18.71 65.38 24.09 67.61 30.85C69.69 37.12 69.66 44.13 67.02 50.74C64.59 56.88 60.06 62.23 53.79 65.6C47.98 68.74 41.08 69.93 34.11 68.48C27.64 67.15 21.58 63.62 17.18 58.03C13.08 52.85 10.71 46.26 10.92 39.14C11.11 32.54 13.53 25.97 18.27 20.66C22.66 15.72 28.74 12.24 35.78 11.22Z" fill="#2F2E30" fill-opacity="1.000000" fill-rule="evenodd"/>
	</g>
	<circle id="Ellipse 5" cx="40.000000" cy="40.000000" r="29.000000" fill="#000000" fill-opacity="1.000000"/>
	<rect id="icon-delivery" rx="0.000000" width="39.000000" height="39.000000" transform="translate(20.500000 20.500000)" fill="#FFFFFF" fill-opacity="0"/>
	<g clip-path="url(#clip19_6048)">
		<path id="Vector" d="M31.66 51.66C29.82 51.66 28.33 50.17 28.33 48.33C28.33 46.49 29.82 45 31.66 45C33.5 45 35 46.49 35 48.33C35 50.17 33.5 51.66 31.66 51.66Z" stroke="#FAFAFA" stroke-opacity="1.000000" stroke-width="2.000000" stroke-linejoin="round"/>
		<path id="Vector" d="M48.33 51.66C46.49 51.66 45 50.17 45 48.33C45 46.49 46.49 45 48.33 45C50.17 45 51.66 46.49 51.66 48.33C51.66 50.17 50.17 51.66 48.33 51.66Z" stroke="#FAFAFA" stroke-opacity="1.000000" stroke-width="2.000000" stroke-linejoin="round"/>
		<path id="Vector" d="M28.33 48.33L27 48.33C25.89 48.33 25 47.43 25 46.33L25 41.66M23.33 28.33L39.66 28.33C40.77 28.33 41.66 29.22 41.66 30.33L41.66 48.33M35 48.33L45 48.33M51.66 48.33L53 48.33C54.1 48.33 55 47.43 55 46.33L55 38.33L50.58 30.97C50.22 30.36 49.57 30 48.86 30L41.66 30M55 38.33L41.66 38.33" stroke="#FAFAFA" stroke-opacity="1.000000" stroke-width="2.000000" stroke-linejoin="round" stroke-linecap="round"/>
		<path id="Vector" d="M28 48L26.66 48C25.56 48 24.66 47.1 24.66 46L24.66 41.33M23 28L39.33 28C40.43 28 41.33 28.89 41.33 30L41.33 48M35 48L44.66 48M52 48L52.66 48C53.77 48 54.66 47.1 54.66 46L54.66 38L50.24 30.63C49.88 30.03 49.23 29.66 48.53 29.66L41.33 29.66M54.66 38L41.33 38" stroke="#FAFAFA" stroke-opacity="1.000000" stroke-width="2.000000" stroke-linejoin="round" stroke-linecap="round"/>
		<path id="Vector" d="M25 31.81L31.66 31.81" stroke="#FAFAFA" stroke-opacity="1.000000" stroke-width="2.000000" stroke-linejoin="round" stroke-linecap="round"/>
		<path id="Vector" d="M21.81 35.45L28.48 35.45" stroke="#FAFAFA" stroke-opacity="1.000000" stroke-width="2.000000" stroke-linejoin="round" stroke-linecap="round"/>
		<path id="Vector" d="M25 39.09L31.66 39.09" stroke="#FAFAFA" stroke-opacity="1.000000" stroke-width="2.000000" stroke-linejoin="round" stroke-linecap="round"/>
	</g>
</svg>
